<svg width="10" height="10" fill="none" xmlns="http://www.w3.org/2000/svg">
  <path fill-rule="evenodd" clip-rule="evenodd" d="M5 1a.333.333 0 0 0-.333.333v3.334H1.333a.333.333 0 1 0 0 .666h3.334v3.334a.333.333 0 1 0 .666 0V5.333h3.334a.333.333 0 0 0 0-.666H5.333V1.333A.333.333 0 0 0 5 1z" fill="#39414A"/>
  <path d="M4.667 4.667v.5h.5v-.5h-.5zm-3.334 0v-.5.5zm3.334.666h.5v-.5h-.5v.5zm.666 0v-.5h-.5v.5h.5zm3.334-.666v.5-.5zm-3.334 0h-.5v.5h.5v-.5zm-.166-3.334A.167.167 0 0 1 5 1.5v-1a.833.833 0 0 0-.833.833h1zm0 3.334V1.333h-1v3.334h1zm-3.834.5h3.334v-1H1.333v1zM1.5 5a.167.167 0 0 1-.167.167v-1A.833.833 0 0 0 .5 5h1zm-.167-.167c.092 0 .167.075.167.167h-1c0 .46.373.833.833.833v-1zm3.334 0H1.333v1h3.334v-1zm.5 3.834V5.333h-1v3.334h1zM5 8.5c.092 0 .167.075.167.167h-1c0 .46.373.833.833.833v-1zm-.167.167c0-.092.075-.167.167-.167v1c.46 0 .833-.373.833-.833h-1zm0-3.334v3.334h1V5.333h-1zm3.834-.5H5.333v1h3.334v-1zM8.5 5c0-.092.075-.167.167-.167v1c.46 0 .833-.373.833-.833h-1zm.167.167A.167.167 0 0 1 8.5 5h1a.833.833 0 0 0-.833-.833v1zm-3.334 0h3.334v-1H5.333v1zm-.5-3.834v3.334h1V1.333h-1zM5 1.5a.167.167 0 0 1-.167-.167h1A.833.833 0 0 0 5 .5v1z" fill="#39414A"/>
</svg>
