<svg width="10" height="2" viewBox="0 0 10 2" fill="none" xmlns="http://www.w3.org/2000/svg">
<path d="M2 1C2 1.55228 1.55229 2 1 2C0.447717 2 1.8395e-06 1.55228 1.86364e-06 1C1.88778e-06 0.447715 0.447717 -4.37109e-08 1 -4.37109e-08C1.55229 -4.37109e-08 2 0.447715 2 1Z" fill="#0070E0"/>
<path d="M6 1C6 1.55228 5.55229 2 5 2C4.44772 2 4 1.55228 4 1C4 0.447715 4.44772 -4.37111e-08 5 -4.37111e-08C5.55229 -4.37111e-08 6 0.447715 6 1Z" fill="#0070E0"/>
<path d="M9 2C9.55229 2 10 1.55228 10 1C10 0.447715 9.55229 -4.37114e-08 9 -4.37114e-08C8.44772 -4.37114e-08 8 0.447715 8 1C8 1.55228 8.44772 2 9 2Z" fill="#0070E0"/>
</svg>
