<svg width="10" height="2" fill="none" xmlns="http://www.w3.org/2000/svg">
  <path d="M8.667.667a.333.333 0 0 1 0 .667H1.333a.333.333 0 0 1 0-.667h7.334z" fill="#39414A"/>
  <path d="M1.333.667v-.5.5zm0 .666v-.5.5zm7.334 0v.5-.5zm0-.666v.5-.5zm0 .166H1.333v1h7.334v-1zm-7.334.334h7.334v-1H1.333v1zM1.5 1a.167.167 0 0 1-.167.167v-1A.833.833 0 0 0 .5 1h1zM1.333.833c.092 0 .167.075.167.167h-1c0 .46.373.833.833.833v-1zM8.5 1c0-.092.075-.167.167-.167v1c.46 0 .833-.373.833-.833h-1zm1 0a.833.833 0 0 0-.833-.833v1A.167.167 0 0 1 8.5 1h1z" fill="#39414A"/>
</svg>
