<svg width="10" height="6" fill="none" xmlns="http://www.w3.org/2000/svg">
  <path d="M8.787.744a.333.333 0 0 1 .426.512l-4 3.333a.333.333 0 0 1-.426 0l-4-3.333a.333.333 0 1 1 .426-.512L5 3.899 8.787.744z" fill="#39414A"/>
  <path d="M8.787.744l.32.384-.32-.384zm.426.512l.32.384-.32-.384zm-4 3.333l.32.385-.32-.385zm-.426 0l-.32.385.32-.385zm-4-3.333l.32-.384-.32.384zm.426-.512l.32-.384-.32.384zM5 3.899l-.32.385.32.266.32-.266L5 3.899zm4.107-2.77a.167.167 0 0 1-.235-.022l.768-.64A.833.833 0 0 0 8.467.36l.64.768zm-.235-.022a.167.167 0 0 1 .021-.235l.64.768A.833.833 0 0 0 9.64.467l-.768.64zm.021-.235l-4 3.333.64.769 4-3.334-.64-.768zm-4 3.333a.167.167 0 0 1 .214 0l-.64.769a.833.833 0 0 0 1.067 0l-.64-.769zm.214 0l-4-3.333-.64.768 4 3.334.64-.769zm-4-3.333c.07.059.08.164.021.235L.36.467A.833.833 0 0 0 .467 1.64l.64-.768zm.021.235a.167.167 0 0 1-.235.021l.64-.768A.833.833 0 0 0 .36.467l.768.64zm-.235.021L4.68 4.284l.64-.769L1.534.36l-.64.768zM5.32 4.284l3.787-3.156-.64-.768L4.68 3.515l.64.769z" fill="#39414A"/>
</svg>
