<svg width="106" height="20" fill="none" xmlns="http://www.w3.org/2000/svg">
  <path d="M11.936 16.941v2.824H0V0h3.351V16.94h8.585z" fill="#0F1415"/>
  <path fill-rule="evenodd" clip-rule="evenodd" d="M26.164 15.53h-3.057c-.176.588-.53 1.058-1.176 1.352-.53.353-1.235.53-1.999.53-1.117 0-2-.353-2.646-1.06-.647-.705-1-1.587-1-2.764v-.176h9.996v-1.06c0-2.117-.588-3.823-1.764-5.117C23.342 6 21.755 5.353 19.756 5.353c-2.058 0-3.646.706-4.88 2-1.235 1.294-1.823 3.059-1.823 5.353 0 2.294.588 4.059 1.822 5.353C16.11 19.353 17.756 20 19.873 20c1.646 0 3.058-.412 4.233-1.235 1.176-.824 1.882-1.883 2.058-3.236zm-8.76-6.706c.588-.648 1.41-.942 2.352-.942 1 0 1.764.294 2.41.942.588.588.882 1.47.941 2.47h-6.762c.06-1 .412-1.823 1.059-2.47zM33.632 19.294c.764.412 1.646.647 2.704.647 1.823 0 3.234-.647 4.292-1.882 1.059-1.294 1.588-3.059 1.588-5.294 0-2.236-.53-4.06-1.588-5.353-1.058-1.353-2.47-2-4.292-2-1.058 0-1.94.176-2.704.647-.765.47-1.353 1.059-1.764 1.882h-.06V.06h-3.233v19.706h3.175v-2.412h.059c.411.882 1.058 1.47 1.823 1.941zM35.337 8.06c1.058 0 1.94.412 2.587 1.235.646.883.94 1.941.94 3.353 0 1.412-.294 2.53-.94 3.353-.647.823-1.53 1.235-2.587 1.235-1.059 0-1.94-.412-2.588-1.235-.646-.823-.999-1.882-.999-3.294 0-1.412.353-2.53 1-3.353.646-.882 1.528-1.294 2.587-1.294zM56.856 15.53h-3.057a2.321 2.321 0 0 1-1.117 1.352c-.53.353-1.235.53-2 .53-1.117 0-1.999-.353-2.645-1.06-.647-.705-1-1.587-1-2.764v-.176h9.937v-1.06c0-2.117-.588-3.823-1.764-5.117C54.034 6 52.446 5.353 50.447 5.353c-2.058 0-3.645.647-4.88 2-1.235 1.294-1.823 3.059-1.823 5.353 0 2.294.588 4.059 1.823 5.353C46.802 19.353 48.448 20 50.565 20c1.705 0 3.116-.412 4.233-1.235 1.176-.824 1.823-1.942 2.058-3.236zm-8.76-6.706c.587-.648 1.41-.942 2.351-.942 1 0 1.764.294 2.41.942.589.588.883 1.47.942 2.47h-6.762c.059-1 .412-1.823 1.058-2.47zM60.207 17.941c1.059 1.353 2.529 2 4.292 2 1 0 1.94-.235 2.764-.706.764-.47 1.352-1.058 1.764-1.882h.059v2.412h3.175V.118h-3.234V7.94h-.059c-.412-.823-1-1.412-1.764-1.882S65.5 5.353 64.5 5.353c-1.764 0-3.175.647-4.293 2-1.117 1.353-1.646 3.118-1.646 5.294 0 2.176.588 3.941 1.646 5.294zm2.646-8.647c.647-.823 1.529-1.235 2.587-1.235 1.059 0 1.94.412 2.587 1.235.647.883 1 2 1 3.353 0 1.412-.353 2.53-1 3.353-.647.823-1.528 1.235-2.587 1.235-1.058 0-1.94-.412-2.587-1.235-.647-.823-1-1.941-1-3.353 0-1.412.353-2.53 1-3.353zM87.489 15.53H84.43c-.176.588-.529 1.058-1.175 1.352-.53.353-1.235.53-2 .53-1.117 0-1.999-.353-2.645-1.06-.647-.705-1-1.587-1-2.764v-.176h9.995v-1.06c0-2.117-.587-3.823-1.763-5.117C84.667 6 83.079 5.353 81.08 5.353c-2.058 0-3.645.647-4.88 2-1.235 1.294-1.823 3.059-1.823 5.353 0 2.294.588 4.059 1.823 5.353C77.435 19.353 79.081 20 81.198 20c1.646 0 3.057-.412 4.233-1.235 1.176-.824 1.823-1.942 2.058-3.236zm-8.76-6.706c.587-.648 1.41-.942 2.351-.942 1 0 1.764.294 2.41.942.589.588.883 1.47.942 2.47H77.67c.059-1 .412-1.823 1.058-2.47z" fill="#0F1415"/>
  <path d="M101.718 5.53l-5.057 14.293h-3.586L88.018 5.53h3.47l3.35 11.236h.06l3.35-11.236h3.47z" fill="#0F1415"/>
  <path d="M102.464.057h3.353v3.351h-3.353V.057z" fill="#AC0033"/>
</svg>
