<svg width="22" height="20" fill="none" xmlns="http://www.w3.org/2000/svg"><path fill-rule="evenodd" clip-rule="evenodd" d="M20.97.224a.765.765 0 0 1 .574.2c.15.14.227.335.21.533l-.276 3.087c-.032.354-.352.622-.729.622-.02 0-.04 0-.061-.002-.403-.03-.702-.359-.669-.732l.111-1.243-5.371 4.989c-.27.25-.7.266-.99.038l-5.717-4.49-6.558 6.083a.76.76 0 0 1-.518.2.76.76 0 0 1-.517-.2.645.645 0 0 1 0-.96l7.035-6.525c.269-.25.7-.266.99-.038l5.716 4.49 4.915-4.565-1.395.095c-.403.026-.754-.254-.784-.628-.029-.374.274-.699.677-.726L20.97.224zM5.974 8.349a.774.774 0 0 1 .797-.147.68.68 0 0 1 .452.627V19.1c0 .375-.328.679-.732.679H3.45c-.404 0-.732-.304-.732-.679v-7.45c0-.18.077-.352.215-.48l3.04-2.82zm4.075 0a.774.774 0 0 0-.797-.147.68.68 0 0 0-.452.627V19.1c0 .375.328.679.732.679h3.04c.404 0 .732-.304.732-.679v-7.45a.655.655 0 0 0-.214-.48l-3.04-2.82zm8.086 0a.774.774 0 0 1 .798-.147.68.68 0 0 1 .452.627V19.1c0 .375-.328.679-.732.679h-3.04c-.405 0-.732-.304-.732-.679v-7.45c0-.18.077-.352.214-.48l3.04-2.82z" fill="#fff"/></svg>