<svg width="22" height="20" fill="none" xmlns="http://www.w3.org/2000/svg"><path fill-rule="evenodd" clip-rule="evenodd" d="M11.608.222a.611.611 0 0 0-.608.61v8.555a.61.61 0 0 0 .608.613h8.559c.336 0 .61-.274.61-.613A9.795 9.795 0 0 0 11.608.222zm9.545 10.756h-7.595a.616.616 0 0 0-.603.627.64.64 0 0 0 .184.449l5.348 5.568c.11.123.269.2.442.2.21 0 .393-.11.501-.277a10.219 10.219 0 0 0 2.313-5.828.615.615 0 0 0-.59-.74zM9.72 10.643l6 5.991a.58.58 0 0 1-.038.848 9.283 9.283 0 0 1-6.127 2.296c-5.142 0-9.312-4.165-9.312-9.3 0-4.939 3.86-8.981 8.734-9.278.32 0 .578.258.578.578l.003 8.46c0 .157.06.302.162.405z" fill="#fff"/></svg>