<svg width="22" height="20" fill="none" xmlns="http://www.w3.org/2000/svg"><path fill-rule="evenodd" clip-rule="evenodd" d="M20.468.222c.711 0 1.287.603 1.287 1.346v16.864c0 .743-.576 1.346-1.287 1.346h-1.337c-.71 0-1.287-.603-1.287-1.346V1.568c0-.743.576-1.346 1.287-1.346h1.337zm-5.866 3.911c.71 0 1.287.603 1.287 1.346v12.953c0 .743-.576 1.346-1.287 1.346h-1.338c-.71 0-1.286-.603-1.286-1.346V5.48c0-.743.576-1.346 1.286-1.346h1.338zm-4.58 4.351c0-.783-.576-1.417-1.287-1.417H7.398c-.711 0-1.287.634-1.287 1.417v9.876c0 .783.576 1.418 1.287 1.418h1.337c.71 0 1.287-.635 1.287-1.418V8.484zM4.156 12.41c0-.791-.62-1.432-1.385-1.432H1.629c-.765 0-1.385.641-1.385 1.432v5.935c0 .792.62 1.433 1.385 1.433h1.142c.765 0 1.385-.641 1.385-1.433V12.41z" fill="#fff"/></svg>